Format : MPEG-4
Format profile : Base Media / Version 2
Codec ID : mp42
File size : 412 MiB
Duration : 1h 40mn
Overall bit rate : 576 Kbps
Encoded date : UTC 2010-10-14 21:56:47
Tagged date : UTC 2010-10-14 21:57:20
Writing application : mp4creator 1.6.1d

Video
ID : 1
Format : AVC
Format/Info : Advanced Video Codec
Format profile : Baseline@L1.3
Format settings, CABAC : No
Format settings, ReFrames : 1 frame
Codec ID : avc1
Codec ID/Info : Advanced Video Coding
Duration : 1h 40mn
Bit rate mode : Variable
Bit rate : 512 Kbps
Width : 480 pixels
Height : 272 pixels
Display aspect ratio : 16:9
Original display aspect ratio : 16:9
Frame rate mode : Constant
Frame rate : 24.000 fps
Resolution : 24 bits
Colorimetry : 4:2:0
Scan type : Progressive
Bits/(Pixel*Frame) : 0.163
Stream size : 366 MiB (89%)
Encoded date : UTC 2010-10-14 21:56:47
Tagged date : UTC 2010-10-14 21:57:17

Audio
ID : 2
Format : AAC
Format/Info : Advanced Audio Codec
Format version : Version 4
Format profile : LC
Format settings, SBR : Yes
Format settings, PS : No
Codec ID : 40
Duration : 1h 40mn
Bit rate mode : Variable
Bit rate : 62.7 Kbps
Maximum bit rate : 136 Kbps
Channel(s) : 2 channels
Channel positions : L R
Sampling rate : 48.0 KHz
Resolution : 16 bits
Stream size : 44.8 MiB (11%)
Encoded date : UTC 2010-10-14 21:57:17
Tagged date : UTC 2010-10-14 21:57:20

Ree Dolly (Lawrence), a 17-year-old girl, is the sole responsible \\\"adult\\\" in her impoverished Ozark family--with a younger brother and sister and an incapacitated mother. She finds herself forced to track her fugitive father, a longtime crystal meth maker, through the most hardcore of the local criminal network after she learns that he has put their home up as his bail bond. She endures a series of harrowing encounters and experiences before she uncovers that her father has been killed for informing on his fellow drug dealers. Due to her perseverance, her menaced family survives.
 
http://www.imdb.com/title/tt1399683/

screen shots
 
http://img401.imageshack.us/img401/3639/wintersboneh264vicemp4s.jpg 
http://img80.imageshack.us/img80/3639/wintersboneh264vicemp4s.jpg 
http://img215.imageshack.us/img215/3639/wintersboneh264vicemp4s.jpg 
http://img529.imageshack.us/img529/3639/wintersboneh264vicemp4s.jpg
 
http://img815.imageshack.us/img815/7997/wintersboneh264vicemp4t.jpg